<svg id="visual" viewBox="0 0 960 540" width="960" height="540" xmlns="http://www.w3.org/2000/svg" xmlns:xlink="http://www.w3.org/1999/xlink" version="1.1"><rect x="0" y="0" width="960" height="540" fill="#121212"></rect><path d="M0 332L48 344L96 330L144 365L192 365L240 327L288 333L336 356L384 359L432 345L480 328L528 349L576 343L624 349L672 326L720 329L768 362L816 334L864 331L912 353L960 352L960 541L912 541L864 541L816 541L768 541L720 541L672 541L624 541L576 541L528 541L480 541L432 541L384 541L336 541L288 541L240 541L192 541L144 541L96 541L48 541L0 541Z" fill="#181818"></path><path d="M0 385L48 352L96 378L144 368L192 387L240 380L288 384L336 377L384 360L432 359L480 356L528 369L576 361L624 358L672 379L720 373L768 387L816 390L864 391L912 371L960 377L960 541L912 541L864 541L816 541L768 541L720 541L672 541L624 541L576 541L528 541L480 541L432 541L384 541L336 541L288 541L240 541L192 541L144 541L96 541L48 541L0 541Z" fill="#2f1f1d"></path><path d="M0 381L48 411L96 402L144 413L192 409L240 392L288 415L336 411L384 388L432 393L480 403L528 381L576 398L624 406L672 385L720 380L768 409L816 399L864 398L912 380L960 381L960 541L912 541L864 541L816 541L768 541L720 541L672 541L624 541L576 541L528 541L480 541L432 541L384 541L336 541L288 541L240 541L192 541L144 541L96 541L48 541L0 541Z" fill="#452522"></path><path d="M0 438L48 425L96 438L144 403L192 420L240 409L288 421L336 404L384 411L432 439L480 410L528 424L576 425L624 421L672 412L720 427L768 408L816 416L864 436L912 432L960 434L960 541L912 541L864 541L816 541L768 541L720 541L672 541L624 541L576 541L528 541L480 541L432 541L384 541L336 541L288 541L240 541L192 541L144 541L96 541L48 541L0 541Z" fill="#5c2a27"></path><path d="M0 459L48 452L96 432L144 451L192 452L240 444L288 454L336 433L384 445L432 447L480 458L528 447L576 464L624 461L672 458L720 428L768 460L816 432L864 423L912 432L960 447L960 541L912 541L864 541L816 541L768 541L720 541L672 541L624 541L576 541L528 541L480 541L432 541L384 541L336 541L288 541L240 541L192 541L144 541L96 541L48 541L0 541Z" fill="#74302d"></path><path d="M0 474L48 486L96 466L144 461L192 461L240 483L288 471L336 460L384 464L432 455L480 453L528 471L576 466L624 471L672 455L720 487L768 456L816 487L864 447L912 481L960 475L960 541L912 541L864 541L816 541L768 541L720 541L672 541L624 541L576 541L528 541L480 541L432 541L384 541L336 541L288 541L240 541L192 541L144 541L96 541L48 541L0 541Z" fill="#8c3432"></path><path d="M0 506L48 489L96 500L144 509L192 502L240 498L288 471L336 503L384 475L432 509L480 511L528 511L576 491L624 475L672 472L720 479L768 501L816 471L864 491L912 487L960 481L960 541L912 541L864 541L816 541L768 541L720 541L672 541L624 541L576 541L528 541L480 541L432 541L384 541L336 541L288 541L240 541L192 541L144 541L96 541L48 541L0 541Z" fill="#a53938"></path><path d="M0 494L48 536L96 524L144 504L192 528L240 501L288 525L336 495L384 504L432 516L480 524L528 498L576 497L624 515L672 534L720 499L768 494L816 523L864 526L912 528L960 508L960 541L912 541L864 541L816 541L768 541L720 541L672 541L624 541L576 541L528 541L480 541L432 541L384 541L336 541L288 541L240 541L192 541L144 541L96 541L48 541L0 541Z" fill="#bf3d3d"></path></svg>