<svg xmlns="http://www.w3.org/2000/svg" width="179.535" height="25.755" viewBox="0 0 179.535 25.755">
  <g id="Grupo_4" data-name="Grupo 4" transform="translate(-85.41 -37.027)">
    <g id="Grupo_1" data-name="Grupo 1" transform="translate(112.466 28.915) rotate(48)">
      <path id="Trazado_13" data-name="Trazado 13" d="M11.062,19.769H6.639A1.727,1.727,0,0,1,4.985,18.54L.074,2.224A1.727,1.727,0,0,1,1.728,0H6.151A1.727,1.727,0,0,1,7.8,1.229l4.911,16.315A1.727,1.727,0,0,1,11.062,19.769Z" transform="translate(0 16.639)" fill="#bf3d3d"/>
      <path id="Trazado_14" data-name="Trazado 14" d="M11.624,19.769H6.506a1.394,1.394,0,0,1-1.335-.992L.06,1.8A1.394,1.394,0,0,1,1.395,0H6.513A1.394,1.394,0,0,1,7.848.992l5.111,16.981A1.394,1.394,0,0,1,11.624,19.769Z" transform="translate(7.291 8.287)" fill="#bf3d3d"/>
      <path id="Trazado_15" data-name="Trazado 15" d="M11.624,19.769H6.506a1.394,1.394,0,0,1-1.335-.992L.06,1.8A1.394,1.394,0,0,1,1.395,0H6.513A1.394,1.394,0,0,1,7.848.992l5.111,16.981A1.394,1.394,0,0,1,11.624,19.769Z" transform="translate(14.753 0)" fill="#bf3d3d"/>
    </g>
  </g>
  <path id="Trazado_16" data-name="Trazado 16" d="M1.87,0H6.188V-12.444a3.985,3.985,0,0,1,3.468-1.768c2.142,0,3.5,1.5,3.5,3.91V0h4.318V-10.948c0-.476-.068-.918-.1-1.36a4.124,4.124,0,0,1,3.57-1.9c2.142,0,3.536,1.5,3.536,3.91V0h4.284V-10.948c0-4.114-2.754-7-6.7-7a7.292,7.292,0,0,0-5.848,2.72,6.243,6.243,0,0,0-5.338-2.72,6.634,6.634,0,0,0-4.692,1.8v-1.462H1.87ZM40.936.34a9.145,9.145,0,0,0,9.35-9.112,9.152,9.152,0,0,0-9.35-9.146A9.123,9.123,0,0,0,31.62-8.772,9.116,9.116,0,0,0,40.936.34Zm0-3.74a5.2,5.2,0,0,1-5.1-5.372,5.189,5.189,0,0,1,5.1-5.406A5.216,5.216,0,0,1,46.07-8.772,5.207,5.207,0,0,1,40.936-3.4ZM61.744.34a9.145,9.145,0,0,0,9.35-9.112,9.152,9.152,0,0,0-9.35-9.146,9.123,9.123,0,0,0-9.316,9.146A9.116,9.116,0,0,0,61.744.34Zm0-3.74a5.2,5.2,0,0,1-5.1-5.372,5.189,5.189,0,0,1,5.1-5.406,5.216,5.216,0,0,1,5.134,5.406A5.207,5.207,0,0,1,61.744-3.4ZM79.22,0H83.4L90.95-17.612H86.36l-5,12.138-5-12.138H71.672ZM95.03-19.924a2.5,2.5,0,0,0,2.482-2.482,2.474,2.474,0,0,0-2.482-2.482,2.482,2.482,0,0,0-2.516,2.482A2.5,2.5,0,0,0,95.03-19.924ZM92.854,0h4.318V-17.612H92.854Zm8.058,0h4.318V-12.444a3.985,3.985,0,0,1,3.468-1.768c2.142,0,3.5,1.5,3.5,3.91V0h4.318V-10.948c0-.476-.068-.918-.1-1.36a4.124,4.124,0,0,1,3.57-1.9c2.142,0,3.536,1.5,3.536,3.91V0h4.284V-10.948c0-4.114-2.754-7-6.7-7a7.292,7.292,0,0,0-5.848,2.72,6.243,6.243,0,0,0-5.338-2.72,6.634,6.634,0,0,0-4.692,1.8v-1.462h-4.318Z" transform="translate(51.729 24.888)" fill="#fff"/>
</svg>