<svg xmlns="http://www.w3.org/2000/svg" width="45.64" height="22.903" viewBox="0 0 45.64 22.903">
  <g id="Grupo_4" data-name="Grupo 4" transform="translate(-85.41 -39.879)">
    <g id="Grupo_1" data-name="Grupo 1" transform="translate(112.466 28.915) rotate(48)">
      <path id="Trazado_13" data-name="Trazado 13" d="M11.062,19.769H6.639A1.727,1.727,0,0,1,4.985,18.54L.074,2.224A1.727,1.727,0,0,1,1.728,0H6.151A1.727,1.727,0,0,1,7.8,1.229l4.911,16.315A1.727,1.727,0,0,1,11.062,19.769Z" transform="translate(0 16.639)" fill="#bf3d3d"/>
      <path id="Trazado_14" data-name="Trazado 14" d="M11.624,19.769H6.506a1.394,1.394,0,0,1-1.335-.992L.06,1.8A1.394,1.394,0,0,1,1.395,0H6.513A1.394,1.394,0,0,1,7.848.992l5.111,16.981A1.394,1.394,0,0,1,11.624,19.769Z" transform="translate(7.291 8.287)" fill="#bf3d3d"/>
      <path id="Trazado_15" data-name="Trazado 15" d="M11.624,19.769H6.506a1.394,1.394,0,0,1-1.335-.992L.06,1.8A1.394,1.394,0,0,1,1.395,0H6.513A1.394,1.394,0,0,1,7.848.992l5.111,16.981A1.394,1.394,0,0,1,11.624,19.769Z" transform="translate(14.753 0)" fill="#bf3d3d"/>
    </g>
  </g>
</svg>
